<?xml version="1.0" standalone="no"?>
<!DOCTYPE svg PUBLIC "-//W3C//DTD SVG 20010904//EN"
 "http://www.w3.org/TR/2001/REC-SVG-20010904/DTD/svg10.dtd">
<svg version="1.0" xmlns="http://www.w3.org/2000/svg"
 width="16.000000pt" height="16.000000pt" viewBox="0 0 16.000000 16.000000"
 preserveAspectRatio="xMidYMid meet">
<metadata>
Created by potrace 1.11, written by Peter Selinger 2001-2013
</metadata>
<g transform="translate(0.000000,16.000000) scale(0.004000,-0.004000)"
fill="#000000" stroke="none">
<path d="M1377 2922 l-919 -919 919 -918 918 -919 3 305 2 304 615 615 614
614 -614 614 -615 614 -2 304 -3 304 -918 -918z m463 -942 c0 -330 -2 -600 -4
-600 -2 0 -139 136 -305 301 l-301 301 298 299 c163 164 300 298 305 298 4 1
7 -269 7 -599z"/>
</g>
</svg>
