<?xml version="1.0" encoding="utf-8"?>
<!-- Generator: Adobe Illustrator 16.0.0, SVG Export Plug-In . SVG Version: 6.00 Build 0)  -->
<!DOCTYPE svg PUBLIC "-//W3C//DTD SVG 1.1//EN" "http://www.w3.org/Graphics/SVG/1.1/DTD/svg11.dtd">
<svg version="1.1" xmlns="http://www.w3.org/2000/svg" xmlns:xlink="http://www.w3.org/1999/xlink" x="0px" y="0px" width="300px"
	 height="350px" viewBox="0 0 300 350" enable-background="new 0 0 300 350" xml:space="preserve">
<g id="_x30_1-copy" display="none">
	
		<text transform="matrix(0.9828 -0.1847 0.1847 0.9828 20.6641 200.9814)" display="inline" fill="#F2F2F2" font-family="'MyriadPro-BlackIt'" font-size="60.521">ENGINEER</text>
</g>
<g id="_x30_1">
	<g>
		<path fill-rule="evenodd" clip-rule="evenodd" fill="#DDDDDD" d="M70.271,286.049c-6.22-0.88-12.126-1.63-18.002-2.567
			c-9.375-1.498-18.784-2.852-28.077-4.756c-12.374-2.535-15.371-5.992-14.335-18.513c2.271-27.462,14.062-49.261,39.54-61.986
			c7.858-3.925,16.118-7.037,24.164-10.591c8.486-3.748,16.936-7.578,25.773-11.539c9.572,9.637,21.329,16.279,35.843,16.376
			c14.567,0.097,26.36-6.431,36.065-16.328c12.29,5.458,24.396,10.834,36.729,16.312c-0.124,0.53-0.377,1.254-0.452,1.995
			c-0.274,2.691-1.743,2.958-4.076,2.404c-6.564-1.556-13.221-1.832-19.819-0.326c-15.526,3.542-21.954,18.393-14.106,33.312
			c2.653,5.045,6.526,9.448,9.477,13.627c-3.362,5.329-7.291,10.418-9.99,16.091c-4.2,8.832-5.249,19.897,7.271,28.989
			c-27.428,2.645-54.537,2.602-81.951,0.02c0-3.867-0.009-7.656,0.001-11.445c0.021-7.156-0.035-14.314,0.16-21.468
			c0.038-1.361,0.784-2.971,1.72-3.996c2.97-3.255,6.292-6.191,9.244-9.462c1.001-1.109,1.786-2.826,1.848-4.3
			c0.219-5.286,0.203-10.59,0.006-15.875c-0.051-1.386-0.796-2.973-1.711-4.052c-1.957-2.311-4.329-4.267-6.348-6.532
			c-1.641-1.842-3.785-2.176-5.535-1.19c-1.02,0.574-1.51,2.738-1.583,4.218c-0.205,4.192-0.072,8.401-0.072,12.804
			c-6.494,0-12.802,0-19.42,0c0-4.433,0.131-8.819-0.077-13.191c-0.065-1.366-0.838-3.648-1.654-3.826
			c-1.565-0.342-3.395,0.521-5.112,0.895c-0.082,0.018-0.144,0.128-0.214,0.195c-8.317,7.882-7.809,7.911-8.449,19.316
			c-0.408,7.259,1.432,12.719,7.27,16.892c4.872,3.483,6.455,8.065,6.017,14.116C69.836,269.64,70.271,277.687,70.271,286.049z"/>
		<path fill-rule="evenodd" clip-rule="evenodd" fill="#DDDDDD" d="M187.996,98.872c3.723,0.505,4.896,2.568,5.358,5.289
			c1.257,7.408,0.869,14.767-2.136,21.625c-2.337,5.331-5.204,10.542-8.596,15.259c-2.426,3.373-4.466,6.71-5.846,10.627
			c-2.704,7.671-6.958,14.472-12.855,20.11c-18.359,17.55-41.398,16.354-58.591-1.509c-6.075-6.312-10.134-13.848-12.799-22.186
			c-0.512-1.604-1.463-3.171-2.552-4.469c-8.534-10.163-13.898-21.483-13.176-35.098c0.077-1.46,0.271-2.922,0.523-4.364
			c0.467-2.667,1.521-4.88,5.216-5.13c0-8.188-0.128-16.217,0.023-24.24c0.489-25.914,18.003-44.45,43.827-46.76
			c10.662-0.954,21.111-0.474,31.322,2.985c19.087,6.466,28.922,22.913,30.167,40.263C188.532,80.34,187.996,89.491,187.996,98.872z
			 M137.794,102.761c0.423,7.136,3.172,12.535,9.735,15.411c17.437,7.642,29.596-5.85,30.989-18.215
			c0.395-3.502-0.3-4.24-3.785-4.245c-10.092-0.015-20.185,0.003-30.277,0.002c-16.166-0.001-32.333,0.011-48.5-0.027
			c-2.37-0.005-4.006,0.425-3.929,3.355c0.264,10.135,9.047,19.98,19.065,21.236c10.229,1.282,19.377-4.606,21.334-13.757
			c0.26-1.214,0.367-2.461,0.554-3.761C134.609,102.761,136.06,102.761,137.794,102.761z"/>
		<path fill-rule="evenodd" clip-rule="evenodd" fill="#2FA0F5" d="M191.439,244.428c-4.123-4.807-7.825-8.853-11.193-13.161
			c-1.726-2.207-3.112-4.772-4.206-7.364c-4.431-10.492,0.835-18.963,12.199-19.879c7.038-0.567,13.848,0.686,20.591,2.511
			c1.117,0.304,2.238,0.593,3.135,0.828c1.867-5.324,3.324-10.637,5.594-15.577c1.686-3.666,4.014-7.237,6.782-10.163
			c5.198-5.491,12.297-5.372,17.786-0.157c5.84,5.546,8.304,12.906,10.573,20.333c0.541,1.771,0.947,3.584,1.433,5.443
			c4.687-0.97,9.293-2.347,13.986-2.774c4.622-0.422,9.457-0.517,13.976,0.375c7.746,1.529,11.398,8.118,9.504,15.8
			c-1.524,6.18-5.2,11.149-9.354,15.749c-2.223,2.463-4.864,4.549-7.907,7.346c2.555,2.299,4.78,4.04,6.691,6.076
			c4.24,4.521,7.997,9.403,10.06,15.371c3.029,8.76-0.712,15.708-9.77,17.801c-7.469,1.725-14.779,0.243-22.034-1.541
			c-1.608-0.396-3.203-0.85-4.816-1.281c-1.594,4.763-2.761,9.639-4.849,14.083c-1.967,4.186-4.418,8.363-7.526,11.745
			c-5.088,5.536-12.281,5.274-17.762,0.061c-5.767-5.489-8.164-12.768-10.465-20.073c-0.555-1.765-0.954-3.578-1.527-5.764
			c-2.566,0.628-5.06,1.287-7.575,1.846c-6.539,1.454-13.132,2.409-19.782,0.881c-8.753-2.009-12.567-9.156-9.583-17.702
			c2.045-5.859,5.694-10.7,9.852-15.166C187.178,248.003,189.433,246.24,191.439,244.428z M250.067,278.718
			c-2.592-1.044-5.021-1.664-7.062-2.912c-6.438-3.94-12.396-3.811-19.232-0.212c-7.373,3.883-7.75,3.277-5.152,11.288
			c1.875,5.778,3.994,11.485,8.422,15.897c3.935,3.917,8.566,3.995,12.402,0.005C245.879,296.09,247.853,287.404,250.067,278.718z
			 M216.479,208.719c5.492,2.365,10.594,4.586,15.726,6.738c0.567,0.238,1.393,0.309,1.941,0.079
			c5.222-2.177,10.409-4.436,15.828-6.768c-1.717-7.797-3.879-15.378-8.675-21.915c-4.798-6.537-11.112-6.614-15.977-0.17
			C220.425,193.175,218.419,200.837,216.479,208.719z M255.158,211.729c0.742,5.824,1.398,11.247,2.159,16.656
			c0.108,0.775,0.534,1.718,1.127,2.18c4.391,3.418,8.859,6.735,13.654,10.347c2.073-2.158,4.434-4.131,6.187-6.545
			c3.133-4.319,6.498-8.635,8.673-13.445c2.756-6.099-0.158-10.85-6.687-12.193C271.628,206.949,263.461,209.384,255.158,211.729z
			 M211.338,211.762c-1.81-0.519-3.646-1.121-5.521-1.568c-6.483-1.549-12.988-2.934-19.698-1.465
			c-5.987,1.312-8.717,5.452-6.935,11.262c2.683,8.738,9.067,14.797,15.346,20.826c4.695-3.525,9.094-6.781,13.422-10.132
			c0.608-0.47,1.135-1.359,1.241-2.119C209.963,223.064,210.614,217.548,211.338,211.762z M194.27,246.563
			c-3.421,3.904-7.019,7.518-9.999,11.581c-2.155,2.938-3.95,6.327-5.087,9.784c-1.744,5.307,0.934,9.577,6.388,10.781
			c8.917,1.968,17.361-0.399,25.788-2.899c-0.731-5.802-1.4-11.314-2.157-16.812c-0.095-0.686-0.508-1.51-1.041-1.922
			C203.759,253.671,199.293,250.348,194.27,246.563z M255.17,275.752c7.592,2.506,15.292,4.375,23.285,3.486
			c8.428-0.937,11.448-6.489,8.011-14.199c-3.256-7.299-8.711-12.884-14.488-18.267c-4.674,3.497-9.229,6.848-13.695,10.312
			c-0.578,0.449-0.89,1.462-1,2.26C256.546,264.666,255.899,269.998,255.17,275.752z M253.822,244.201
			c-0.172-3.421-0.231-6.853-0.587-10.255c-0.102-0.976-0.837-2.23-1.661-2.73c-5.35-3.247-10.755-6.415-16.27-9.37
			c-1.063-0.569-2.951-0.571-4.016-0.004c-5.518,2.946-10.927,6.106-16.283,9.342c-0.833,0.504-1.684,1.769-1.703,2.699
			c-0.143,6.646-0.127,13.298,0.004,19.946c0.017,0.851,0.792,2.013,1.553,2.471c5.441,3.285,10.928,6.504,16.513,9.537
			c0.973,0.528,2.658,0.476,3.704,0.004c3.022-1.367,5.923-3.021,8.804-4.682C253.679,255.512,253.668,255.491,253.822,244.201z
			 M215.552,213.093c-0.655,4.684-1.239,8.863-1.902,13.603c5.11-2.945,9.654-5.564,14.605-8.418
			C223.918,216.508,220.054,214.93,215.552,213.093z M250.943,213.092c-4.405,1.82-8.355,3.452-12.679,5.238
			c5.04,2.875,9.572,5.462,14.61,8.336C252.197,221.904,251.6,217.703,250.943,213.092z M215.582,274.483
			c4.454-1.822,8.379-3.43,12.692-5.196c-5.021-2.881-9.58-5.496-14.616-8.387C214.334,265.673,214.929,269.865,215.582,274.483z
			 M250.959,274.486c0.661-4.774,1.237-8.933,1.875-13.539c-5.072,2.89-9.608,5.474-14.583,8.306
			C242.54,271.02,246.464,272.635,250.959,274.486z M197.824,243.812c3.601,2.784,6.941,5.369,10.67,8.255c0-5.74,0-10.874,0-16.566
			C204.769,238.402,201.437,240.999,197.824,243.812z M258.033,235.529c0,5.72,0,10.818,0,16.535
			c3.751-2.927,7.083-5.525,10.645-8.304C265.068,240.968,261.767,238.416,258.033,235.529z"/>
		<path fill-rule="evenodd" clip-rule="evenodd" fill="#2FA0F5" d="M113.794,98.628c3.235,0,6.469,0.042,9.702-0.015
			c2.199-0.039,3.168,0.926,3.3,3.139c0.534,8.97-3.519,14.257-11.326,15.327c-8.823,1.21-15.163-5.759-16.264-12.73
			c-0.628-3.98,0.828-5.665,4.886-5.718c1.666-0.022,3.333-0.022,4.999-0.027c1.568-0.005,3.135,0,4.703,0
			C113.794,98.611,113.794,98.619,113.794,98.628z"/>
		<path fill-rule="evenodd" clip-rule="evenodd" fill="#2FA0F5" d="M157.44,98.6c3.234,0,6.468-0.045,9.701,0.013
			c3.294,0.059,4.651,1.502,4.362,4.813c-0.803,9.182-10.171,17.91-21.805,11.829c-4.689-2.453-7.347-9.48-5.602-14.601
			c0.311-0.915,1.965-1.854,3.06-1.934c3.411-0.249,6.853-0.091,10.283-0.091C157.44,98.619,157.44,98.609,157.44,98.6z"/>
		<path fill-rule="evenodd" clip-rule="evenodd" fill="#DDDDDD" d="M248.081,243.685c0.017,8.371-6.488,14.973-14.791,15.01
			c-8.274,0.038-14.856-6.588-14.84-14.942c0.017-8.323,6.68-14.961,14.931-14.872C241.561,228.968,248.064,235.519,248.081,243.685
			z"/>
	</g>
</g>
<g id="_x30_2-copy" display="none">
</g>
<g id="_x30_2" display="none">
	<g id="nutFCa.tif" display="inline">
		<g>
			<path fill="none" d="M187.199,17.866c41.934,0,83.866,0,125.801,0c0,105.05,0,210.101,0,315.151c-102.89,0-205.777,0-308.667,0
				c0-19.021,0-38.043,0-57.064c1.684,4.477,2.808,9.362,6.884,12.396c6.523,4.854,12.915,10.029,19.972,13.979
				c5.483,3.069,11.896,4.478,17.895,6.624c1.674,4.312,5.697,5.647,9.426,7.159c10.2,4.136,21.046,5.241,31.868,5.77
				c12.707,0.62,25.404-0.215,37.693-3.854c4.389-1.301,8.8-3.03,12.685-5.408c5.764-3.527,5.971-11.667,0.733-15.017
				c-2.531-1.618-5.301-2.862-7.963-4.275c7.611-5.872,14.245-12.671,19.627-20.662c6.11,0.842,12.221,1.683,18.33,2.523
				c0.582,0.687,1.104,1.906,1.755,1.979c8.404,0.951,16.823,1.776,25.251,2.489c0.6,0.05,1.293-1.022,1.944-1.574
				c7.627,0.91,15.281,0.985,22.605,4.298c10.776,4.872,22.418,5.822,34.125,5.074c9.338-0.595,17.869-3.499,24.776-10.181
				c2.433-0.695,5.346-0.767,7.209-2.201c5.816-4.48,7.192-6.311,3.789-11.82c-2.562-4.148-6.4-7.079-11.127-8.66
				c-0.597-1.941-1.071-3.931-1.812-5.818c-3.873-9.88-7.266-20-11.872-29.53c-5.688-11.766-16.661-17.518-28.553-21.001
				c-9.145-2.68-18.678-4.03-28.039-5.973c0.28-7.911-0.297-15.654-4.236-22.791c-1.15-2.085-2.745-3.25-5.186-3.079
				c0.009-0.824,0.018-1.647,0.025-2.472c1.481-0.286,2.97-0.538,4.441-0.865c10.582-2.35,20.41-6.173,27.945-14.423
				c7.848-8.59,8.364-11.481,3.124-21.871c-3.308-6.558-5.139-13.476-5.638-20.711c-0.339-4.935-0.06-9.913-0.058-14.872
				c5.85-8.724,6.757-18.386,5.149-28.421c-2.344-14.631-8.376-27.363-20.458-36.458c-7.771-5.849-17.129-7.113-26.548-7.805
				C189.122,18.429,188.166,18.083,187.199,17.866z"/>
			<path fill-rule="evenodd" clip-rule="evenodd" fill="none" d="M4.333,271.413c0-84.516,0-169.031,0-253.547
				c58.794,0,117.587,0,176.381,0c-0.422,0.215-0.836,0.603-1.264,0.619c-15.873,0.61-31.208,3.99-46.135,9.22
				c-14.427,5.055-28.165,11.51-39.646,21.886c-6.158,5.566-11.187,11.872-9.61,21.03c1.235,7.174,6.149,11.8,11.348,16.291
				c6.216,5.37,14.719,7.214,20.37,13.404c0.25,7.626,0.399,15.257,0.792,22.876c0.22,4.272,0.847,8.524,1.291,12.786
				c-2.428,1.458-4.766,3.859-7.312,4.104c-2.403,0.231-5.023-1.806-7.531-2.839c0.629,2.997,2.611,5.195,5.797,5.244
				c3.589,0.056,7.191-0.733,10.788-1.154c0.398,1.669,0.791,3.341,1.192,5.01c2.997,12.462,9.467,21.789,22.578,25.253
				c0.713,0.188,1.129,1.499,1.684,2.286c-2.27-0.482-5.098-1.753-5.486,2.025c-0.693,6.72-1.006,13.479-1.477,20.222
				c-1.174,0.283-2.347,0.566-3.521,0.849c-1.04-0.555-2.091-1.091-3.119-1.668c-13.667-7.665-27.884-13.186-44.004-11.45
				c-8.653,0.932-17.023,2.847-24.671,7.172c-10.148,5.739-14.857,14.345-13.614,26.086c0.34,3.213,0.576,6.459,0.523,9.686
				c-0.157,9.698-3.803,17.161-13.612,20.536c-5.094,1.753-10.163,3.58-15.209,5.463c-8.343,3.115-14.112,8.584-15.873,17.649
				C4.926,270.803,4.56,271.094,4.333,271.413z"/>
			<path fill-rule="evenodd" clip-rule="evenodd" fill="#F9B101" d="M4.333,271.413c0.227-0.319,0.592-0.61,0.66-0.961
				c1.76-9.065,7.53-14.534,15.873-17.649c5.047-1.883,10.116-3.71,15.209-5.463c9.81-3.375,13.455-10.838,13.612-20.536
				c0.052-3.227-0.184-6.473-0.523-9.686c-1.244-11.741,3.465-20.347,13.614-26.086c7.648-4.325,16.018-6.24,24.671-7.172
				c16.12-1.735,30.337,3.785,44.004,11.45c1.028,0.577,2.079,1.113,3.12,1.668c0.482,0.364,0.965,0.73,1.447,1.096
				c1.056,0.886,2.105,1.78,3.169,2.657c9.539,7.853,16.971,17.176,20.46,29.259c0.56,3.16,1.348,6.301,1.637,9.486
				c0.909,9.994-1.303,19.43-5.552,28.442c-0.861,1.581-1.722,3.163-2.583,4.744c-5.381,7.991-12.015,14.79-19.626,20.662
				c-3.11,1.896-6.143,3.933-9.342,5.664c-23.758,12.858-48.906,15.394-75.1,9.962c-6-2.146-12.412-3.555-17.895-6.624
				c-7.057-3.95-13.448-9.125-19.972-13.979c-4.076-3.033-5.2-7.919-6.884-12.396C4.333,274.439,4.333,272.926,4.333,271.413z
				 M31.666,277.278c0.17-1.232,0.545-2.477,0.476-3.697c-0.248-4.308-4.276-7.807-8.812-7.805
				c-4.717,0.002-8.544,3.622-8.964,8.478c-0.384,4.447,3.003,8.653,7.587,9.419c4.455,0.744,8.58-1.97,9.684-6.372L31.666,277.278z
				 M73.03,307.758c2.588-0.258,5.135-0.642,7.693-0.743c9.307-0.368,18.263-2.452,26.968-5.603
				c1.033-0.373,2.165-2.104,2.227-3.262c0.294-5.486-2.431-9.534-7.078-12.122c-11.682-6.503-25.546-3.589-34.799,4.578
				c-3.993,3.524-6.616,8.329-4.639,14.151c0.286,0.842,1.205,1.899,1.994,2.062C67.898,307.335,70.479,307.474,73.03,307.758z
				 M134.739,228.535c0.001-9.359-6.774-16.183-16.083-16.196c-9.113-0.013-16.315,7.107-16.345,16.159
				c-0.029,8.779,7.49,16.295,16.321,16.312C127.683,244.829,134.737,237.702,134.739,228.535z M46.435,262.957
				c0.021,7.027,5.796,12.773,12.78,12.714c6.841-0.06,12.519-5.754,12.557-12.593c0.039-7.015-5.692-12.906-12.599-12.952
				C52.3,250.081,46.416,256.009,46.435,262.957z M78.739,226.602c7.663,0.5,13.233-5.502,13.462-12.672
				c0.231-7.252-5.805-13.085-13.172-13.051c-7.306,0.035-12.909,5.643-12.903,12.915C66.131,220.912,71.792,226.66,78.739,226.602z
				 M128.15,272.726c0.049-4.953-4.044-9.108-8.997-9.132c-4.986-0.023-9.07,4.03-9.085,9.02c-0.013,4.596,4.801,9.821,9.051,9.825
				C123.488,282.441,128.103,277.479,128.15,272.726z"/>
			<path fill-rule="evenodd" clip-rule="evenodd" fill="#03033C" d="M115.778,100.316c-5.651-6.19-14.154-8.035-20.37-13.404
				c-5.198-4.491-10.112-9.117-11.348-16.291c-1.577-9.159,3.452-15.464,9.61-21.03c11.481-10.376,25.219-16.832,39.646-21.886
				c14.927-5.23,30.262-8.61,46.135-9.22c0.428-0.016,0.842-0.404,1.264-0.619c2.161,0,4.322,0,6.484,0
				c0.967,0.218,1.923,0.563,2.899,0.635c9.419,0.691,18.777,1.956,26.548,7.805c12.082,9.095,18.114,21.827,20.458,36.458
				c1.607,10.035,0.7,19.697-5.149,28.421c-0.219-1.914-0.5-3.823-0.645-5.743c-0.44-5.885-2.288-11.06-7.804-14.002
				c-7.985-4.26-15.937-8.635-24.174-12.361c-10.682-4.833-22.042-6.787-33.807-7.001c-12.267-0.224-24.195,1.812-36.116,4.207
				c-0.921,0.185-2.36,0.495-2.57,1.092c-1.656,4.73-3.072,9.543-4.562,14.332c-1.503,5.116-3.235,10.178-4.439,15.362
				C116.832,91.412,116.441,95.896,115.778,100.316z M151.228,49.647c9.145,0.141,18.289,0.282,27.433,0.422
				c8.11,2.24,16.22,4.479,24.496,6.765c0.978-2.926-0.167-5.752-1.621-8.54c-4.1-7.86-10.28-13.373-18.869-15.634
				c-3.14-0.827-6.621-0.342-9.945-0.488c-6.729-0.294-12.766,1.644-18.003,5.829c-4.159,3.324-7.84,7.111-10.87,12.776
				C146.929,50.305,149.079,49.977,151.228,49.647z"/>
			<path fill-rule="evenodd" clip-rule="evenodd" fill="#E6C6A3" d="M115.778,100.316c0.663-4.421,1.054-8.904,2.062-13.245
				c1.204-5.185,2.936-10.247,4.439-15.362c0.387-0.494,0.839-0.95,1.15-1.487c2.866-4.95,6.598-8.795,12.51-9.866
				c4.869-0.882,9.716-1.962,14.622-2.549c13.019-1.557,26.018-1.767,38.828,1.698c14.291,3.865,26.484,14.326,21.908,34.675
				c-0.539,2.396-0.771,4.887-0.849,7.343c-0.025,0.778,0.771,2.125,1.428,2.293c5.048,1.298,7.445,5.063,8.755,9.543
				c3.148,10.774-1.695,25.07-14.016,29.129c-0.929,0.306-2.135,1.408-2.254,2.272c-0.878,6.37-1.512,12.773-2.222,19.166
				c-0.008,0.824-0.017,1.647-0.025,2.472c-2.74,0.307-5.475,0.735-8.224,0.896c-5.99,0.35-11.896,1.163-16.96,4.598
				c-4.012,2.723-8.478,3.138-12.965,3.075c-6.307-0.087-12.606-0.697-18.909-1.085c-0.555-0.787-0.971-2.098-1.684-2.286
				c-13.111-3.465-19.581-12.791-22.578-25.253c-0.401-1.669-0.794-3.34-1.191-5.011c4.308-0.7,8.595-1.593,12.928-2.032
				c3.012-0.305,4.368-2.07,5.104-4.551c0.868-2.923,0.154-5.456-2.277-7.506c-2.094-1.767-4.244-1.489-6.24-0.197
				c-1.965,1.272-3.67,2.943-5.509,4.414c-1.904,1.521-3.832,3.013-5.749,4.519c-0.444-4.262-1.071-8.514-1.291-12.786
				C116.177,115.573,116.028,107.942,115.778,100.316z M186.2,137.266c-0.866,0.614-1.77,1.181-2.592,1.848
				c-5.235,4.25-10.001,4.416-15.416,0.3c-2.31-1.755-4.362-3.842-6.597-5.701c-2.226-1.851-4.332-3.977-6.845-5.32
				c-4.347-2.324-9.075,1.182-8.688,6.147c0.386,4.943,3.04,7.231,8.752,6.405c3.356-0.485,6.048,0.42,8.883,1.665
				c5.225,2.294,10.629,2.804,16.046,0.966c2.912-0.987,5.906-2.203,6.88-5.687c0.166-0.411,0.332-0.823,0.498-1.235
				C186.814,136.858,186.508,137.062,186.2,137.266z"/>
			<path fill-rule="evenodd" clip-rule="evenodd" fill="#03033C" d="M281.94,277.272c-6.907,6.682-15.438,9.586-24.776,10.181
				c-11.707,0.748-23.349-0.202-34.125-5.074c-7.324-3.312-14.979-3.388-22.606-4.298c-0.019-7.878,0.03-15.758-0.065-23.636
				c-0.206-16.836-0.522-33.67-0.664-50.506c-0.011-1.382,0.566-3.243,1.552-4.069c3.26-2.734,6.83-5.097,10.281-7.602
				c9.361,1.942,18.895,3.293,28.039,5.973c11.892,3.483,22.865,9.235,28.553,21.001c4.606,9.53,7.999,19.65,11.872,29.53
				c0.74,1.888,1.215,3.877,1.812,5.818c0.163,1.049,0.306,2.102,0.492,3.146C283.466,264.273,284.884,270.813,281.94,277.272z
				 M202.372,251.516c0.381,0.121,0.762,0.242,1.142,0.364c0.702-0.603,1.492-1.129,2.091-1.82c2.242-2.588,3.528-6.267,7.811-6.484
				c0.432-0.022,0.879-1.091,1.202-1.733c1.55-3.072,2.963-6.218,4.604-9.24c3.076-5.661,6.371-11.206,9.349-16.917
				c0.607-1.166,0.352-2.859,0.262-4.295c-0.186-2.939-0.422-5.884-0.867-8.792c-0.146-0.948-0.795-2.25-1.573-2.605
				c-10.711-4.896-10.727-4.862-20.644,0.511c-0.095,0.051-0.188,0.104-0.288,0.148c-2.429,1.08-3.491,2.817-3.42,5.598
				c0.157,6.154-0.018,12.317,0.025,18.476C202.13,233.655,202.267,242.584,202.372,251.516z M250.396,210.467
				c-2.789-0.061-6.14,2.646-6.768,6.211c-0.481,2.736-1.178,5.489-1.183,8.236c-0.006,2.597-0.118,6.093,1.399,7.583
				c2.307,2.264,3.201,4.909,4.614,7.5c2.495,4.568,5.39,8.873,11.568,8.756c2.084-0.04,4.209-0.046,6.247,0.315
				c1.732,0.308,2.476-0.18,2.593-1.82c0.244-3.418,0.399-6.844,0.703-10.257c0.556-6.238-1.286-11.804-4.645-16.945
				C261.642,215.016,257.477,211.204,250.396,210.467z"/>
			<path fill-rule="evenodd" clip-rule="evenodd" fill="#C72507" d="M211.536,192.269c-3.451,2.505-7.021,4.867-10.281,7.602
				c-0.985,0.826-1.562,2.688-1.552,4.069c0.142,16.836,0.458,33.67,0.664,50.506c0.096,7.878,0.047,15.758,0.065,23.636
				c-0.65,0.552-1.344,1.624-1.943,1.574c-8.428-0.713-16.847-1.538-25.251-2.489c-0.651-0.073-1.173-1.293-1.755-1.979
				c0.019-1.702,0.037-3.405,0.055-5.107c-0.03-17.367-0.061-34.734-0.091-52.103c0.033-2.661,0.066-5.322,0.1-7.984
				c0-1.26,0-2.521,0-3.606c-3.055-0.529-5.877-0.721-8.509-1.529c-7.723-2.371-15.375-4.974-23.04-7.53
				c-0.691-0.23-1.272-0.79-1.905-1.196c0.471-6.743,0.784-13.502,1.477-20.222c0.389-3.778,3.216-2.508,5.486-2.025
				c6.302,0.388,12.602,0.998,18.909,1.085c4.487,0.062,8.953-0.353,12.965-3.075c5.063-3.435,10.97-4.248,16.96-4.598
				c2.749-0.161,5.483-0.59,8.224-0.896c2.44-0.171,4.035,0.994,5.186,3.079C211.239,176.614,211.816,184.357,211.536,192.269z"/>
			<path fill-rule="evenodd" clip-rule="evenodd" fill="#424242" d="M202.14,163.927c0.71-6.393,1.344-12.796,2.222-19.166
				c0.119-0.864,1.325-1.966,2.254-2.272c12.32-4.059,17.164-18.355,14.016-29.129c-1.31-4.48-3.707-8.245-8.755-9.543
				c-0.656-0.169-1.453-1.516-1.428-2.293c0.078-2.457,0.31-4.948,0.849-7.343c4.576-20.349-7.617-30.81-21.908-34.675
				c-12.81-3.465-25.809-3.255-38.828-1.698c-4.906,0.587-9.753,1.667-14.622,2.549c-5.912,1.071-9.644,4.917-12.51,9.866
				c-0.311,0.537-0.763,0.993-1.15,1.487c1.49-4.788,2.906-9.602,4.562-14.332c0.21-0.598,1.648-0.907,2.57-1.092
				c11.92-2.395,23.849-4.431,36.116-4.207c11.765,0.214,23.125,2.168,33.807,7.001c8.237,3.726,16.188,8.101,24.174,12.361
				c5.516,2.942,7.363,8.117,7.804,14.002c0.145,1.919,0.426,3.829,0.645,5.743c-0.002,4.958-0.281,9.937,0.058,14.872
				c0.499,7.236,2.33,14.154,5.638,20.711c5.24,10.39,4.724,13.28-3.124,21.871c-7.535,8.25-17.363,12.074-27.945,14.423
				C205.109,163.389,203.621,163.641,202.14,163.927z"/>
			<path fill-rule="evenodd" clip-rule="evenodd" fill="#E6C6A3" d="M49.084,308.951c26.194,5.432,51.342,2.896,75.1-9.962
				c3.199-1.731,6.232-3.769,9.342-5.664c2.662,1.413,5.433,2.657,7.963,4.275c5.238,3.35,5.03,11.489-0.733,15.017
				c-3.885,2.378-8.296,4.107-12.685,5.408c-12.289,3.64-24.986,4.475-37.693,3.854c-10.821-0.528-21.668-1.634-31.868-5.77
				C54.781,314.599,50.758,313.263,49.084,308.951z"/>
			<path fill-rule="evenodd" clip-rule="evenodd" fill="#E6C6A3" d="M281.94,277.272c2.943-6.459,1.525-12.999,0.363-19.535
				c-0.187-1.045-0.329-2.098-0.492-3.146c4.727,1.581,8.564,4.512,11.127,8.66c3.403,5.51,2.027,7.34-3.789,11.82
				C287.286,276.506,284.373,276.577,281.94,277.272z"/>
			<path fill-rule="evenodd" clip-rule="evenodd" fill="#03033C" d="M171.538,270.079c-0.018,1.702-0.036,3.405-0.055,5.107
				c-6.109-0.841-12.22-1.682-18.33-2.523c0.86-1.581,1.721-3.163,2.583-4.745C161.003,268.639,166.271,269.358,171.538,270.079z"/>
			<path fill-rule="evenodd" clip-rule="evenodd" fill="#03033C" d="M117.862,135.979c1.917-1.505,3.845-2.997,5.749-4.519
				c1.839-1.471,3.544-3.142,5.509-4.414c1.996-1.292,4.146-1.57,6.24,0.197c2.431,2.05,3.145,4.583,2.277,7.506
				c-0.736,2.48-2.093,4.246-5.104,4.551c-4.333,0.439-8.62,1.333-12.928,2.032c-3.598,0.422-7.2,1.211-10.789,1.155
				c-3.186-0.049-5.168-2.248-5.797-5.244c2.508,1.033,5.128,3.07,7.531,2.839C113.096,139.838,115.434,137.437,117.862,135.979z"/>
			<path fill-rule="evenodd" clip-rule="evenodd" fill="#03033C" d="M138.094,196.13c0.632,0.406,1.214,0.966,1.905,1.196
				c7.665,2.557,15.317,5.159,23.04,7.53c2.632,0.809,5.454,1,8.509,1.529c0,1.086,0,2.347,0,3.606
				c-10.513-0.573-20.248-3.49-29.116-9.306c-1.894-1.24-4.261-1.761-6.41-2.612c-0.482-0.365-0.964-0.731-1.447-1.096
				C135.747,196.696,136.92,196.413,138.094,196.13z"/>
			<path fill-rule="evenodd" clip-rule="evenodd" fill="#E6C6A3" d="M73.03,307.758c-2.55-0.284-5.131-0.423-7.635-0.938
				c-0.79-0.163-1.708-1.221-1.994-2.062c-1.977-5.822,0.646-10.627,4.639-14.151c9.253-8.167,23.118-11.081,34.799-4.578
				c4.647,2.588,7.372,6.636,7.078,12.122c-0.062,1.157-1.193,2.889-2.227,3.262c-8.705,3.15-17.661,5.234-26.968,5.603
				C78.165,307.116,75.618,307.5,73.03,307.758z M83.269,290.611c-0.602,3.087,0.526,5.083,3.178,5.352
				c1.914,0.195,3.317-0.424,3.26-2.373C87.45,292.545,85.467,291.628,83.269,290.611z"/>
			<path fill-rule="evenodd" clip-rule="evenodd" fill="#C72507" d="M134.739,228.535c-0.002,9.167-7.056,16.294-16.106,16.275
				c-8.832-0.018-16.35-7.533-16.321-16.312c0.03-9.052,7.231-16.172,16.345-16.159
				C127.965,212.353,134.741,219.176,134.739,228.535z M112.86,226.879c3.43,6.177,13.506,9.794,15.946,6.361
				C123.646,231.182,118.378,229.08,112.86,226.879z"/>
			<path fill-rule="evenodd" clip-rule="evenodd" fill="#424242" d="M171.538,270.079c-5.268-0.721-10.535-1.44-15.802-2.161
				c4.248-9.012,6.46-18.447,5.551-28.441c-0.289-3.186-1.077-6.326-1.635-9.486c3.933-4.004,7.864-8.008,11.795-12.014
				C171.478,235.345,171.508,252.712,171.538,270.079z"/>
			<path fill-rule="evenodd" clip-rule="evenodd" fill="none" d="M46.435,262.957c-0.019-6.948,5.865-12.876,12.738-12.831
				c6.907,0.046,12.638,5.938,12.599,12.952c-0.039,6.839-5.716,12.533-12.557,12.593C52.231,275.73,46.455,269.984,46.435,262.957z
				"/>
			<path fill-rule="evenodd" clip-rule="evenodd" fill="#E6C6A3" d="M171.447,217.977c-3.931,4.006-7.862,8.01-11.795,12.014
				c-3.491-12.083-10.924-21.406-20.462-29.259c-1.064-0.877-2.113-1.771-3.169-2.657c2.149,0.852,4.516,1.372,6.41,2.612
				c8.868,5.815,18.604,8.732,29.116,9.306C171.514,212.654,171.48,215.315,171.447,217.977z"/>
			<path fill-rule="evenodd" clip-rule="evenodd" fill="#424242" d="M78.739,226.602c-6.947,0.059-12.608-5.689-12.613-12.808
				c-0.005-7.272,5.598-12.88,12.903-12.915c7.367-0.034,13.403,5.799,13.172,13.051C91.972,221.1,86.401,227.102,78.739,226.602z
				 M72.452,211.017c0.821,4.596,4.026,6.784,8.136,8.061c3.44,1.068,6.283,0.223,8.496-2.648c0.494-1.017,1.25-1.987,1.439-3.059
				c1.167-6.584-5.89-11.38-11.661-11.3C73.992,202.139,70.799,206.593,72.452,211.017z"/>
			<path fill-rule="evenodd" clip-rule="evenodd" fill="#424242" d="M31.636,277.301c-1.104,4.402-5.229,7.116-9.684,6.372
				c-4.583-0.766-7.971-4.972-7.587-9.419c0.419-4.855,4.247-8.476,8.964-8.478c4.536-0.002,8.565,3.497,8.812,7.805
				c0.07,1.221-0.305,2.465-0.477,3.697c-0.214-0.586-0.276-1.549-0.663-1.703c-4.041-1.612-8.133-3.095-12.246-4.627
				c-0.441,2.879,1.561,4.844,3.888,6.466C25.594,279.468,28.662,279.234,31.636,277.301z"/>
			<path fill-rule="evenodd" clip-rule="evenodd" fill="#424242" d="M128.15,272.726c-0.047,4.754-4.662,9.716-9.032,9.713
				c-4.25-0.004-9.063-5.229-9.051-9.825c0.016-4.989,4.099-9.043,9.085-9.02C124.105,263.617,128.199,267.772,128.15,272.726z
				 M121.454,277.14c2.719,0.076,5.373-2.392,5.385-5.003c0.016-3.275-3.977-7.016-7.61-7.129c-3.013-0.096-5.311,1.943-5.365,4.76
				C113.792,273.46,117.466,277.028,121.454,277.14z"/>
			<path fill-rule="evenodd" clip-rule="evenodd" fill="#424242" d="M151.228,49.647c-2.149,0.33-4.298,0.658-7.379,1.131
				c3.03-5.665,6.711-9.452,10.87-12.776c5.237-4.186,11.273-6.123,18.003-5.829c3.324,0.146,6.806-0.339,9.945,0.488
				c8.589,2.261,14.77,7.773,18.869,15.634c1.454,2.788,2.599,5.614,1.621,8.54c-8.276-2.286-16.386-4.525-24.497-6.766
				c-0.737-1.047-1.242-2.494-2.248-3.076c-7.473-4.333-15.064-3.928-22.554-0.002C152.805,47.542,152.096,48.745,151.228,49.647z"
				/>
			<path fill-rule="evenodd" clip-rule="evenodd" fill="#E6C6A3" d="M151.228,49.647c0.868-0.902,1.577-2.105,2.63-2.657
				c7.489-3.925,15.081-4.331,22.554,0.002c1.006,0.583,1.511,2.029,2.248,3.076C169.517,49.929,160.372,49.788,151.228,49.647z"/>
			<path fill-rule="evenodd" clip-rule="evenodd" fill="#03033C" d="M186.624,137.889c-0.974,3.484-3.968,4.7-6.88,5.687
				c-5.417,1.837-10.821,1.328-16.046-0.966c-2.835-1.245-5.526-2.15-8.883-1.665c-5.712,0.826-8.366-1.462-8.752-6.405
				c-0.388-4.965,4.34-8.471,8.688-6.147c2.513,1.344,4.619,3.469,6.845,5.32c2.234,1.859,4.287,3.946,6.597,5.701
				c5.415,4.116,10.181,3.95,15.416-0.3c0.822-0.667,1.726-1.234,2.592-1.848C186.342,137.473,186.482,137.682,186.624,137.889z"/>
			<path fill-rule="evenodd" clip-rule="evenodd" fill="#03033C" d="M186.2,137.266c0.308-0.204,0.614-0.408,0.922-0.612
				c-0.166,0.412-0.332,0.824-0.498,1.235C186.482,137.682,186.342,137.473,186.2,137.266z"/>
			<path fill-rule="evenodd" clip-rule="evenodd" fill="#424242" d="M202.372,251.516c-0.105-8.932-0.242-17.86-0.307-26.791
				c-0.043-6.158,0.132-12.321-0.025-18.476c-0.071-2.78,0.991-4.518,3.42-5.598c0.1-0.044,0.193-0.098,0.288-0.148
				c9.917-5.373,9.933-5.406,20.644-0.511c0.778,0.355,1.428,1.657,1.573,2.605c0.445,2.908,0.682,5.853,0.867,8.792
				c0.09,1.436,0.346,3.129-0.262,4.295c-2.978,5.711-6.272,11.256-9.349,16.917c-1.642,3.022-3.055,6.168-4.604,9.24
				c-0.323,0.643-0.771,1.711-1.202,1.733c-4.282,0.218-5.568,3.896-7.811,6.484c-0.599,0.691-1.389,1.218-2.091,1.82
				C203.134,251.758,202.753,251.637,202.372,251.516z"/>
			<path fill-rule="evenodd" clip-rule="evenodd" fill="#424242" d="M250.396,210.467c7.08,0.737,11.245,4.549,14.53,9.579
				c3.358,5.142,5.2,10.707,4.645,16.945c-0.304,3.413-0.459,6.839-0.703,10.257c-0.117,1.641-0.86,2.128-2.593,1.82
				c-2.038-0.361-4.163-0.355-6.247-0.315c-6.179,0.117-9.073-4.188-11.568-8.756c-1.413-2.591-2.308-5.236-4.614-7.5
				c-1.518-1.49-1.405-4.986-1.399-7.583c0.005-2.747,0.701-5.5,1.183-8.236C244.257,213.112,247.607,210.406,250.396,210.467z"/>
			<path fill-rule="evenodd" clip-rule="evenodd" fill="none" d="M83.269,290.611c2.198,1.017,4.181,1.934,6.438,2.979
				c0.057,1.949-1.346,2.568-3.26,2.373C83.795,295.694,82.667,293.698,83.269,290.611z"/>
			<path fill-rule="evenodd" clip-rule="evenodd" fill="#E6C6A3" d="M112.86,226.879c5.518,2.201,10.785,4.303,15.946,6.361
				C126.366,236.673,116.291,233.056,112.86,226.879z"/>
			<path fill-rule="evenodd" clip-rule="evenodd" fill="#F9B101" d="M72.452,211.017c-1.653-4.424,1.54-8.878,6.41-8.946
				c5.771-0.08,12.828,4.716,11.661,11.3c-0.19,1.071-0.945,2.042-1.439,3.059c-5.383-0.798-10.666-1.858-15.074-5.414
				C73.696,210.761,72.981,211.004,72.452,211.017z"/>
			<path fill-rule="evenodd" clip-rule="evenodd" fill="#E6C6A3" d="M72.452,211.017c0.529-0.013,1.244-0.256,1.558-0.002
				c4.409,3.556,9.691,4.616,15.074,5.414c-2.213,2.871-5.056,3.717-8.496,2.648C76.478,217.801,73.273,215.612,72.452,211.017z"/>
			<path fill-rule="evenodd" clip-rule="evenodd" fill="#E6C6A3" d="M31.636,277.301c-2.974,1.934-6.042,2.167-8.992,0.113
				c-2.327-1.622-4.329-3.587-3.888-6.466c4.113,1.532,8.206,3.015,12.246,4.627c0.386,0.154,0.449,1.117,0.663,1.703
				C31.666,277.278,31.636,277.301,31.636,277.301z"/>
			<path fill-rule="evenodd" clip-rule="evenodd" fill="#E6C6A3" d="M121.454,277.14c-3.988-0.111-7.662-3.68-7.59-7.372
				c0.054-2.816,2.352-4.855,5.365-4.76c3.633,0.113,7.625,3.854,7.61,7.129C126.827,274.748,124.173,277.216,121.454,277.14z"/>
		</g>
	</g>
</g>
<g id="_x30_3-copy" display="none">
</g>
<g id="_x30_3" display="none">
	<g display="inline">
		<path fill-rule="evenodd" clip-rule="evenodd" fill="#E5DCDC" d="M7,118.12c6.766-3.817,13.555-7.592,20.292-11.459
			C37.913,100.563,48.5,94.406,59.099,88.27c10.41-6.027,20.816-12.062,31.227-18.088c0.3-0.174,0.629-0.296,1.097-0.513
			c2.03,3.479,4.032,6.878,6.004,10.294c6.016,10.418,12.021,20.842,18.029,31.264c1.115,1.934,2.171,3.903,3.353,5.795
			c0.75,1.202,0.537,1.818-0.711,2.533c-12.069,6.904-24.101,13.872-36.141,20.824c-0.369,0.213-0.717,0.461-1.304,0.84
			c2.011,3.512,3.99,6.985,5.985,10.45c2.157,3.744,4.367,7.46,6.464,11.237c0.464,0.838,0.82,1.896,0.777,2.832
			c-0.614,13.401,2.775,25.816,9.174,37.482c0.792,1.444,0.92,2.693,0.424,4.266c-1.492,4.729-3.507,9.221-6.731,12.96
			c-1.844,2.14-4.314,3.769-6.612,5.479c-8.274,6.158-15.426,13.391-21.449,21.772c-5.282,7.349-9.233,15.299-11.073,24.182
			c-0.666,3.218-0.82,6.54-1.252,10.183c-3.667-0.421-7.487-0.579-11.179-1.349c-5.484-1.144-10.907-2.62-16.294-4.171
			c-1.684-0.484-3.273-1.521-4.717-2.565c-1.838-1.33-2.788-3.163-2.56-5.602c0.75-8.039,4.555-14.663,9.64-20.61
			c7.983-9.338,17.99-15.613,29.807-18.995c0.126-0.036,0.224-0.169,1.127-0.881c-0.732-0.356-1.452-0.545-1.965-0.979
			c-9.745-8.213-14.913-18.688-14.345-31.447c0.931-20.94,23.381-33.979,42.248-24.803c0.248,0.121,0.527,0.177,1.496,0.491
			c-5.235-9.09-10.171-17.66-15.211-26.41c-13.136,7.58-26.025,15.018-39.094,22.559c-3.186-5.517-6.279-10.869-9.37-16.224
			C20,140.784,14.063,130.488,8.104,120.205c-0.269-0.464-0.731-0.815-1.104-1.219C7,118.697,7,118.409,7,118.12z M37.863,157.446
			c0.578-0.278,1.042-0.466,1.471-0.715c6.107-3.545,12.198-7.118,18.314-10.646c16.907-9.754,33.817-19.502,50.751-29.208
			c1.168-0.669,1.39-1.286,0.675-2.364c-0.358-0.539-0.627-1.136-0.953-1.698c-6.089-10.541-12.209-21.064-18.238-31.64
			c-0.856-1.503-1.513-1.649-2.985-0.779c-8.556,5.06-17.16,10.04-25.772,15.004c-13.042,7.518-26.105,14.995-39.151,22.504
			c-1.712,0.985-3.375,2.058-5.118,3.126C23.958,133.34,30.898,145.37,37.863,157.446z"/>
		<path fill-rule="evenodd" clip-rule="evenodd" fill="#E5DCDC" d="M278,270.936c-2.938,4.675-7.824,6.346-12.694,7.435
			c-6.942,1.552-14.045,2.39-21.082,3.516c-0.331,0.054-0.688-0.059-1.169-0.106c-0.117-1.56-0.209-3.055-0.345-4.545
			c-1.069-11.799-6.124-21.925-13.07-31.275c-5.062-6.812-11.024-12.736-17.574-18.091c-1.281-1.047-2.565-2.129-3.989-2.953
			c-5.79-3.357-8.552-8.915-11.098-14.721c-1.415-3.225-1.275-6.024,0.542-9.127c4.2-7.172,6.688-15.029,7.531-23.268
			c0.334-3.271,2.056-4.837,4.51-6.187c13.955-7.672,30.155-3.995,39.196,9.122c5.562,8.068,6.359,16.998,3.628,26.278
			c-2.425,8.231-6.78,15.214-13.738,20.423c-0.277,0.207-0.484,0.508-0.905,0.96c1.903,0.679,3.631,1.275,5.346,1.91
			c12.052,4.458,21.951,11.784,28.967,22.591c2.237,3.446,3.509,7.521,5.206,11.313c0.285,0.637,0.495,1.308,0.739,1.964
			C278,267.762,278,269.349,278,270.936z"/>
		<path fill-rule="evenodd" clip-rule="evenodd" fill="#E5DCDC" d="M129.376,217.755c-5.903-4.215-10.532-8.852-14.206-14.338
			c-8.558-12.782-13.317-26.756-10.201-42.153c3.666-18.114,14.777-30.089,32.62-35.344c13.322-3.924,26.04-1.783,37.428,5.872
			c13.693,9.205,20.698,22.409,20.392,39.041c-0.27,14.581-5.982,27.17-15.308,38.15c-2.353,2.771-5.367,4.98-8.083,7.442
			c-0.409,0.371-0.848,0.711-1.568,1.312c1.073,0.389,1.841,0.709,2.633,0.949c22.114,6.673,39.68,19.498,52.091,39.031
			c4.119,6.484,6.778,13.642,7.419,21.454c0.342,4.171-1.442,7.089-4.686,9.313c-6.38,4.376-13.711,6.29-21.124,7.879
			c-14.573,3.123-29.362,4.676-44.232,4.787c-14.19,0.107-28.412-0.086-42.571-0.948c-12.869-0.785-25.689-2.611-37.989-6.82
			c-3.175-1.087-6.312-2.501-9.172-4.247c-5.467-3.338-6.587-6.479-5.537-12.747c1.642-9.794,6.147-18.236,12.144-25.955
			c9.849-12.678,22.409-21.867,37.055-28.259c2.895-1.264,5.961-2.134,8.955-3.166C126.566,218.618,127.715,218.281,129.376,217.755
			z"/>
		<path fill-rule="evenodd" clip-rule="evenodd" fill="#E5DCDC" d="M202.644,150.402c-1.997-3.729-3.745-7.065-5.568-10.36
			c-0.66-1.193-1.346-2.441-2.294-3.391c-2.06-2.06-2.471-4.461-2.422-7.26c0.14-7.933,0.049-15.87,0.049-23.806
			c0-0.771,0-1.543,0-2.517c-19.872,0-39.464,0-59.209,0c0-23.54,0-46.871,0-70.386c42.829,0,85.636,0,128.619,0
			c0,23.341,0,46.667,0,70.342c-0.776,0-1.605,0-2.434,0c-17.963,0-35.926,0-53.889,0.001c-2.845,0-2.849,0.003-2.849,2.771
			c-0.002,13.996-0.002,27.99-0.003,41.985C202.644,148.535,202.644,149.286,202.644,150.402z"/>
	</g>
</g>
</svg>
