<?xml version="1.0" encoding="utf-8"?>
<!-- Generator: Adobe Illustrator 16.0.0, SVG Export Plug-In . SVG Version: 6.00 Build 0)  -->
<!DOCTYPE svg PUBLIC "-//W3C//DTD SVG 1.1//EN" "http://www.w3.org/Graphics/SVG/1.1/DTD/svg11.dtd">
<svg version="1.1" xmlns="http://www.w3.org/2000/svg" xmlns:xlink="http://www.w3.org/1999/xlink" x="0px" y="0px" width="20px"
	 height="20px" viewBox="0 0 20 20" enable-background="new 0 0 20 20" xml:space="preserve">
<g id="Layer_1" display="none">
</g>
<g id="Layer_2">
	<path fill="#939393" d="M10,0.855c-5.055,0-9.167,4.112-9.167,9.167S4.945,19.189,10,19.189s9.167-4.112,9.167-9.167
		S15.055,0.855,10,0.855z M9,17.711C6,17.143,2.876,14,2.311,11H9V17.711z M9,9H2.275C2.762,6,6,2.915,9,2.334V9z M11,2.296
		C14,2.792,17.227,6,17.726,9H11V2.296z M11,17.748V11h6.689C17.11,14,14,17.264,11,17.748z"/>
</g>
</svg>
